<svg xmlns="http://www.w3.org/2000/svg" width="1051.274" height="787.5" viewBox="0 0 1051.274 787.5">
  <g id="Abstract" transform="translate(0)">
    <g id="Group_96" data-name="Group 96" transform="translate(0 0)">
      <path id="Union" d="M418.012,52.356A181.545,181.545,0,0,0,161.273,54L0,217.341H468.464A181.385,181.385,0,0,0,418.012,52.356Z" transform="translate(563.478 570.159)" fill="rgba(242,242,242,0.61)"/>
      <path id="Union-2" data-name="Union" d="M980.936,52.356A181.545,181.545,0,0,0,724.2,54L0,787.5H510.241L982.576,309.1A181.545,181.545,0,0,0,980.936,52.356Z" transform="translate(0)" fill="rgba(242,242,242,0.61)"/>
    </g>
    <g id="Group_97" data-name="Group 97" transform="translate(949.947 431.445)">
      <circle id="Ellipse_14" data-name="Ellipse 14" cx="11.259" cy="11.259" r="11.259" transform="translate(78.81 0)" fill="rgba(242,242,242,0.61)"/>
      <circle id="Ellipse_15" data-name="Ellipse 15" cx="15.481" cy="15.481" r="15.481" transform="translate(0 95.698)" fill="rgba(242,242,242,0.61)"/>
    </g>
    <g id="Group_98" data-name="Group 98" transform="translate(7.037 349.82)">
      <circle id="Ellipse_14-2" data-name="Ellipse 14" cx="11.259" cy="11.259" r="11.259" transform="translate(0 0)" fill="rgba(242,242,242,0.61)"/>
      <circle id="Ellipse_15-2" data-name="Ellipse 15" cx="15.481" cy="15.481" r="15.481" transform="translate(70.366 95.698)" fill="rgba(242,242,242,0.61)"/>
    </g>
  </g>
</svg>
